<?xml version="1.0" standalone="no"?>
<!DOCTYPE svg PUBLIC "-//W3C//DTD SVG 20010904//EN"
 "http://www.w3.org/TR/2001/REC-SVG-20010904/DTD/svg10.dtd">
<svg version="1.0" xmlns="http://www.w3.org/2000/svg"
 width="16.000000pt" height="16.000000pt" viewBox="0 0 16.000000 16.000000"
 preserveAspectRatio="xMidYMid meet">

<g transform="translate(0.000000,16.000000) scale(0.100000,-0.100000)"
fill="#000000" stroke="none">
<path d="M96 141 c-4 -5 -2 -12 3 -15 5 -4 12 -2 15 3 4 5 2 12 -3 15 -5 4
-12 2 -15 -3z"/>
<path d="M37 122 c-36 -40 -9 -102 45 -102 22 0 58 26 58 43 0 4 -10 7 -23 7
-13 0 -28 5 -35 12 -7 7 -12 22 -12 35 0 28 -11 29 -33 5z m28 -24 c6 -13 20
-27 33 -33 29 -13 23 -29 -12 -33 -35 -4 -56 13 -56 48 0 44 19 54 35 18z"/>
<path d="M126 111 c-4 -5 -2 -12 3 -15 5 -4 12 -2 15 3 4 5 2 12 -3 15 -5 4
-12 2 -15 -3z"/>
</g>
</svg>
